<?xml version="1.0" encoding="UTF-8"?>
<svg id="Calque_1" data-name="Calque 1" xmlns="http://www.w3.org/2000/svg" viewBox="0 0 1920 739.87">
  <defs>
    <style>
      .cls-1 {
        fill: #fff;
      }

      .cls-1, .cls-2 {
        stroke-width: 0px;
      }

      .cls-2 {
        fill: #eff1f7;
      }
    </style>
  </defs>
  <path class="cls-1" d="M1920,0v673.61c-2.44.27-4.88.54-7.34.8-171.21,18.4-332.65,32.27-483.61,42.53-96.01,6.53-187.77,11.59-275.11,15.43-7.31.32-14.58.64-21.83.94-12.14.51-24.2,1-36.17,1.46-313.5,9.09-685.63,8.07-1059.69-20.08-.08-.01-.16-.02-.24-.02-23.83-2.43-36.01-3.99-36.01-3.99V0h1920Z"/>
  <g>
    <path class="cls-2" d="M392.73,0c-20.94,18.47-42.62,36.88-64.99,55.15C213.9,148.08,99.82,222.84,0,273.27V0h392.73Z"/>
    <path class="cls-2" d="M1920,0v291.89h-13.66c-14.69-4.56-26.65-11.44-35.55-20.76-15.95-16.72-20.95-40.07-16.13-68.61-42.18.77-74.06-8.03-92.65-27.51-21.27-22.28-23.06-56.38-8.08-98.82-54.32,5.05-94.97-3.06-116.98-26.11-12.35-12.94-18.13-29.86-17.86-50.08h300.92Z"/>
    <g>
      <path class="cls-2" d="M1429.05,716.94c-96.01,6.53-187.77,11.59-275.11,15.43-7.31.32-14.58.64-21.83.94-12.14.51-24.2,1-36.17,1.46h-.03c-172.38,5-362.49,6.94-560.9,2.99,260.83-163.88,504.42-216.31,589.19-112.48,21.06,25.81,30.71,59.28,30.05,98.46,129.85-54.43,229.26-64.56,267.69-17.48,2.71,3.33,5.08,6.89,7.11,10.68Z"/>
      <path class="cls-2" d="M531.43,737.69c-114.27-2.31-231.27-6.58-349.21-13.34,171.44-94.89,305.39-129.89,346.58-79.44,16.46,20.18,16.58,52.16,2.63,92.78Z"/>
      <path class="cls-2" d="M152.88,722.61c-38.82-2.36-77.71-5-116.63-7.92-.08-.01-.16-.02-.24-.02-23.83-2.43-36.01-3.99-36.01-3.99v-103.32c76.54-23.87,132.42-23.61,156.51,5.92,18.65,22.83,16.33,60.8-3.63,109.33Z"/>
    </g>
  </g>
</svg>